<svg width="209" height="285" fill="#FDCB6E" xmlns="http://www.w3.org/2000/svg"><g clip-path="url(#a)" fill="#FDCB6E"><path d="M162.704 35.661a6.687 6.687 0 1 0 0-13.374 6.687 6.687 0 0 0 0 13.374zM184.992 13.373a6.687 6.687 0 1 0 0-13.374 6.687 6.687 0 0 0 0 13.374zM207.281 35.661a6.687 6.687 0 1 0-.001-13.373 6.687 6.687 0 0 0 .001 13.373zM118.128 80.238a6.687 6.687 0 1 0-.001-13.374 6.687 6.687 0 0 0 .001 13.374zM140.416 57.95a6.686 6.686 0 0 0 6.686-6.687 6.687 6.687 0 1 0-6.686 6.686zM162.704 80.238a6.687 6.687 0 1 0 0-13.374 6.687 6.687 0 0 0 0 13.374zM184.992 57.95a6.687 6.687 0 1 0 0-13.374 6.687 6.687 0 0 0 0 13.373zM207.281 80.238a6.687 6.687 0 1 0-.001-13.374 6.687 6.687 0 0 0 .001 13.374zM73.551 124.814a6.687 6.687 0 1 0 0-13.373 6.687 6.687 0 0 0 0 13.373zM95.84 102.526a6.687 6.687 0 1 0 0-13.373 6.687 6.687 0 0 0 0 13.373zM118.128 124.814a6.687 6.687 0 1 0-.001-13.373 6.687 6.687 0 0 0 .001 13.373zM140.416 102.526a6.686 6.686 0 0 0 6.686-6.687 6.686 6.686 0 1 0-13.373 0 6.687 6.687 0 0 0 6.687 6.687zM162.704 124.814a6.687 6.687 0 1 0 0-13.374 6.687 6.687 0 0 0 0 13.374zM184.992 102.526a6.687 6.687 0 1 0 0-13.374 6.687 6.687 0 0 0 0 13.374zM207.281 124.814a6.687 6.687 0 1 0-.001-13.373 6.687 6.687 0 0 0 .001 13.373zM95.84 147.102a6.686 6.686 0 1 0 0-13.373 6.687 6.687 0 0 0 0 13.373zM118.128 169.391a6.687 6.687 0 1 0-.002-13.374 6.687 6.687 0 0 0 .002 13.374zM140.416 147.102a6.686 6.686 0 1 0 0-13.373 6.686 6.686 0 0 0 0 13.373zM162.704 169.391a6.687 6.687 0 1 0 0-13.374 6.687 6.687 0 0 0 0 13.374zM184.992 147.102a6.686 6.686 0 1 0 .001-13.373 6.686 6.686 0 0 0-.001 13.373zM207.281 169.391a6.687 6.687 0 1 0-.002-13.374 6.687 6.687 0 0 0 .002 13.374zM140.416 191.679a6.686 6.686 0 1 0 0-13.373 6.686 6.686 0 0 0 0 13.373zM162.704 213.967a6.687 6.687 0 1 0 0-13.374 6.687 6.687 0 0 0 0 13.374zM184.992 191.679a6.687 6.687 0 1 0 0-13.374 6.687 6.687 0 0 0 0 13.374zM207.281 213.967a6.687 6.687 0 1 0-.001-13.373 6.687 6.687 0 0 0 .001 13.373zM184.992 236.255a6.686 6.686 0 1 0 .001-13.373 6.686 6.686 0 0 0-.001 13.373zM207.281 258.543a6.686 6.686 0 1 0 0-13.372 6.686 6.686 0 0 0 0 13.372z"/></g><defs><clipPath id="a"><path fill="#fff" d="M0 0h209v285H0z"/></clipPath></defs></svg>