<svg width="40" height="40" fill="none" xmlns="http://www.w3.org/2000/svg"><path d="M30.54 14.42a2.78 2.78 0 0 0-1.94-2C26.88 12 20 12 20 12s-6.88 0-8.6.46a2.78 2.78 0 0 0-1.94 2A29.001 29.001 0 0 0 9 19.75a29 29 0 0 0 .46 5.33A2.78 2.78 0 0 0 11.4 27c1.72.46 8.6.46 8.6.46s6.88 0 8.6-.46a2.78 2.78 0 0 0 1.94-2c.313-1.732.467-3.49.46-5.25a29.005 29.005 0 0 0-.46-5.33v0z" stroke="#2D3436" stroke-width="2" stroke-linecap="round" stroke-linejoin="round"/><path d="m17.75 23.02 5.75-3.27-5.75-3.27v6.54z" stroke="#2D3436" stroke-width="2" stroke-linecap="round" stroke-linejoin="round"/></svg>