<svg width="5719.000000" height="2988.000000" viewBox="0 0 5719 2988" fill="none" xmlns="http://www.w3.org/2000/svg" xmlns:xlink="http://www.w3.org/1999/xlink">
	<desc>
			Created with Pixso.
	</desc>
	<defs/>
	<path id="Форма 1" d="M-0.5 0C846.7 61.2 1175.5 647 1260.5 763.5C1345.5 880 1494 1130 1631.5 1331.5C1769 1533 1994.5 1927.5 2066.5 1999.5C2138.5 2071.5 2371.48 2379.43 2492.5 2506.5C2552.5 2569.5 2712.34 2714.64 2853.5 2785C3015 2865.5 3081 2928.5 3172 2928.5C3355.2 2928.5 3486.6 2801 3537 2729C3587.4 2657 3773.5 2468 3881 2506.5C3988.5 2545 4097.79 2623 4159 2695C4220.2 2767 4363.6 2928.5 4464 2928.5C4564.4 2928.5 4613.5 2920.9 4681.5 2820.5C4749.5 2720.1 4824.5 2695 4914.5 2695C5004.5 2695 5034.6 2766.5 5085 2820.5C5135.4 2874.5 5233 2987 5309.5 2987C5386 2987 5570 2873 5718 2987" stroke="#FFFFFF" stroke-opacity="1.000000" stroke-width="1.000000"/>
</svg>
